<svg height="512pt" viewBox="0 -39 512.00135 512" width="512pt" xmlns="http://www.w3.org/2000/svg"><path d="m218.507812 222.035156h-56.046874v78.097656l313.269531 50.238282-45.089844-128.335938h-95.074219" fill="#cbe558"/><path d="m162.460938 222.035156h-79.730469l-22.117188 61.765625 101.847657 16.332031zm0 0" fill="#b0e7f8"/><path d="m460.070312 424.753906h41.792969l-26.132812-74.382812-313.269531-50.238282v124.621094h215.820312" fill="#b0e7f8"/><path d="m60.613281 283.800781-50.476562 140.953125h152.324219v-124.621094zm0 0" fill="#cbe558"/><path d="m339.375 32.351562c-34.382812-31.558593-89.082031-29.601562-125.167969 0-33.96875 27.863282-48.554687 79.816407-35.894531 121.601563 15.277344 50.40625 59.164062 87.265625 98.476562 119.371094 38.175782-31.09375 80.429688-65.339844 96.84375-113.597657 14.574219-42.84375 1.117188-98.355468-34.257812-127.375zm0 0" fill="#f5737f"/><path d="m329.214844 112.847656c0 28.953125-23.472656 52.425782-52.425782 52.425782-28.953124 0-52.421874-23.472657-52.421874-52.425782s23.46875-52.421875 52.421874-52.421875c28.953126 0 52.425782 23.46875 52.425782 52.421875zm0 0" fill="#fafafa"/><path d="m378.28125 434.90625c13.03125 0 13.050781-20.300781 0-20.300781h-205.671875v-102.5625l295.546875 47.394531 19.382812 55.167969h-27.46875c-13.035156 0-13.050781 20.296875 0 20.296875h41.792969c6.871094 0 11.859375-7.015625 9.578125-13.511719l-71.226562-202.71875c-1.425782-4.066406-5.265625-6.785156-9.574219-6.785156h-74.726563c11.558594-14.804688 21.246094-31.007813 27.328126-48.890625 16.34375-48.042969.25-107.582032-37.433594-138.492188-19.257813-15.800781-43.769532-24.503906-69.019532-24.503906-25.246093 0-49.757812 8.703125-69.019531 24.503906-36.796875 30.183594-53.269531 85.863282-39.167969 132.394532 6.035157 19.914062 16.699219 38.152343 29.878907 54.988281h-115.75c-4.285157 0-8.109375 2.691406-9.554688 6.726562l-72.59375 202.71875c-2.332031 6.503907 2.65625 13.574219 9.554688 13.574219zm-157.636719-394.707031c15.644531-12.832031 35.582031-19.898438 56.148438-19.898438 20.5625 0 40.503906 7.066407 56.144531 19.898438 15.253906 12.511719 26.789062 31.410156 32.476562 53.21875 5.613282 21.515625 5.121094 43.902343-1.386718 63.039062-14.515625 42.664063-52.589844 75.132813-87.230469 103.722657-36.675781-30.417969-75.777344-66.300782-88.769531-109.167969-11.628906-38.378907 2.390625-86.019531 32.617187-110.8125zm47.035157 238.785156c6.503906 5.347656 11.640624 5.417969 18.230468-.007813 16.765625-13.820312 35.453125-29.222656 52.320313-46.792968h85.214843l37.058594 105.464844-287.894531-46.167969v-59.296875h43.476563c16.15625 17.019531 34.246093 32.507812 51.59375 46.800781 2.757812 2.265625-17.347657-14.292969 0 0zm-177.800782-46.800781h62.429688v56.042968l-78.019532-12.511718zm62.429688 76.601562v105.820313h-127.757813l42.777344-119.445313zm0 0"/><path d="m339.363281 112.847656c0-34.503906-28.070312-62.574218-62.574219-62.574218-34.5 0-62.570312 28.070312-62.570312 62.574218s28.070312 62.574219 62.570312 62.574219c34.503907 0 62.574219-28.070313 62.574219-62.574219zm-104.847656 0c0-23.308594 18.964844-42.273437 42.273437-42.273437 23.3125 0 42.273438 18.964843 42.273438 42.273437s-18.960938 42.273438-42.273438 42.273438c-23.308593.003906-42.273437-18.960938-42.273437-42.273438zm0 0"/><path d="m419.386719 414.605469c-5.515625 0-10.148438 4.632812-10.148438 10.152343 0 5.515626 4.636719 10.148438 10.148438 10.148438 5.355469 0 9.890625-4.363281 10.128906-9.707031.253906-5.679688-4.433594-10.59375-10.128906-10.59375zm0 0"/></svg>